<svg xmlns="http://www.w3.org/2000/svg" width="32" height="32" viewBox="0 0 32 32" fill="none"><path fill-rule="evenodd" clip-rule="evenodd" d="M2 16C2 15.7348 2.10536 15.4805 2.29289 15.2929C2.48043 15.1054 2.73478 15 3 15H26.586L20.292 8.70804C20.1042 8.52027 19.9987 8.26559 19.9987 8.00004C19.9987 7.73449 20.1042 7.47982 20.292 7.29204C20.4798 7.10427 20.7344 6.99878 21 6.99878C21.2656 6.99878 21.5202 7.10427 21.708 7.29204L29.708 15.292C29.8011 15.3849 29.875 15.4953 29.9254 15.6168C29.9758 15.7383 30.0018 15.8685 30.0018 16C30.0018 16.1316 29.9758 16.2618 29.9254 16.3833C29.875 16.5048 29.8011 16.6151 29.708 16.708L21.708 24.708C21.5202 24.8958 21.2656 25.0013 21 25.0013C20.7344 25.0013 20.4798 24.8958 20.292 24.708C20.1042 24.5203 19.9987 24.2656 19.9987 24C19.9987 23.7345 20.1042 23.4798 20.292 23.292L26.586 17H3C2.73478 17 2.48043 16.8947 2.29289 16.7071C2.10536 16.5196 2 16.2653 2 16Z" fill="black"></path></svg>