<svg xmlns="http://www.w3.org/2000/svg" width="18" height="18" viewBox="0 0 18 18" fill="none"><path d="M9.5625 6.29999C9.5625 6.1508 9.50324 6.00773 9.39775 5.90224C9.29226 5.79675 9.14918 5.73749 9 5.73749C8.85082 5.73749 8.70774 5.79675 8.60225 5.90224C8.49676 6.00773 8.4375 6.1508 8.4375 6.29999V9.56249H5.0625C4.91332 9.56249 4.77024 9.62175 4.66475 9.72724C4.55926 9.83273 4.5 9.9758 4.5 10.125C4.5 10.2742 4.55926 10.4172 4.66475 10.5227C4.77024 10.6282 4.91332 10.6875 5.0625 10.6875H9C9.14918 10.6875 9.29226 10.6282 9.39775 10.5227C9.50324 10.4172 9.5625 10.2742 9.5625 10.125V6.29999Z" fill="white"></path><path d="M7.31249 1.125C7.31249 0.975816 7.37176 0.832742 7.47724 0.727252C7.58273 0.621763 7.72581 0.5625 7.87499 0.5625H10.125C10.2742 0.5625 10.4172 0.621763 10.5227 0.727252C10.6282 0.832742 10.6875 0.975816 10.6875 1.125C10.6875 1.27418 10.6282 1.41726 10.5227 1.52275C10.4172 1.62824 10.2742 1.6875 10.125 1.6875V2.32875C11.655 2.54925 13.0432 3.20625 14.157 4.17375C14.1614 4.16882 14.1659 4.16394 14.1705 4.15912L14.5687 3.76087L14.1705 3.36375C14.0649 3.25828 14.0055 3.11516 14.0054 2.9659C14.0053 2.81663 14.0645 2.67343 14.1699 2.56781C14.2754 2.46219 14.4185 2.40279 14.5678 2.40269C14.717 2.40258 14.8602 2.46178 14.9659 2.56725L16.5566 4.15912C16.6103 4.21101 16.6532 4.27308 16.6827 4.34171C16.7122 4.41034 16.7277 4.48415 16.7283 4.55884C16.729 4.63352 16.7147 4.70759 16.6865 4.77672C16.6582 4.84585 16.6164 4.90866 16.5636 4.96147C16.5108 5.01429 16.448 5.05605 16.3788 5.08434C16.3097 5.11262 16.2356 5.12685 16.161 5.1262C16.0863 5.12555 16.0125 5.11004 15.9438 5.08056C15.8752 5.05108 15.8131 5.00822 15.7612 4.9545L15.3641 4.55625L14.9659 4.9545C14.9611 4.95908 14.9562 4.96358 14.9512 4.968C16.0967 6.29027 16.7692 7.95631 16.8628 9.70323C16.9563 11.4501 16.4655 13.1785 15.4678 14.6155C14.47 16.0525 13.0222 17.1164 11.3528 17.6393C9.68332 18.1621 7.88729 18.1142 6.24808 17.5031C4.60888 16.892 3.21983 15.7525 2.30012 14.2643C1.38041 12.7762 0.982408 11.0241 1.16892 9.28468C1.35542 7.54523 2.11582 5.91741 3.33012 4.65807C4.54442 3.39873 6.14349 2.57958 7.87499 2.32987V1.6875C7.72581 1.6875 7.58273 1.62824 7.47724 1.52275C7.37176 1.41726 7.31249 1.27418 7.31249 1.125ZM8.99999 3.375C8.11357 3.37507 7.23584 3.54974 6.41692 3.88903C5.598 4.22832 4.85393 4.72558 4.22719 5.35243C2.96142 6.6184 2.25041 8.33535 2.25056 10.1256C2.2507 11.9158 2.96201 13.6326 4.22798 14.8984C5.49396 16.1641 7.21091 16.8751 9.00112 16.875C10.7913 16.8748 12.5082 16.1635 13.7739 14.8976C15.0397 13.6316 15.7507 11.9146 15.7506 10.1244C15.7504 8.33423 15.0391 6.6174 13.7731 5.35163C12.5072 4.08587 10.7902 3.37485 8.99999 3.375Z" fill="white"></path></svg>