<svg xmlns="http://www.w3.org/2000/svg" width="18" height="18" viewBox="0 0 18 18" fill="none"><g clip-path="url(#clip0_43_4672)"><path d="M4.11079 1.49403C4.04438 1.4086 3.96055 1.33827 3.86487 1.28773C3.76919 1.23719 3.66385 1.20758 3.55585 1.20088C3.44785 1.19417 3.33966 1.21053 3.23846 1.24885C3.13727 1.28717 3.04538 1.34659 2.96892 1.42315L1.80567 2.58753C1.26229 3.13203 1.06204 3.90265 1.29942 4.57878C2.28462 7.37731 3.88725 9.91813 5.98842 12.0128C8.08308 14.1139 10.6239 15.7165 13.4224 16.7018C14.0985 16.9392 14.8692 16.7389 15.4137 16.1955L16.5769 15.0323C16.6535 14.9558 16.7129 14.8639 16.7512 14.7627C16.7895 14.6615 16.8059 14.5533 16.7992 14.4453C16.7925 14.3373 16.7629 14.232 16.7123 14.1363C16.6618 14.0406 16.5915 13.9568 16.506 13.8904L13.9107 11.8722C13.8194 11.8014 13.7132 11.7522 13.6002 11.7285C13.4872 11.7047 13.3702 11.7069 13.2582 11.7349L10.7944 12.3503C10.4656 12.4325 10.121 12.4281 9.79434 12.3376C9.46767 12.2471 9.16999 12.0736 8.93029 11.8339L6.16729 9.06978C5.92741 8.83019 5.75366 8.53257 5.66297 8.20589C5.57228 7.87921 5.56774 7.53461 5.64979 7.20565L6.26629 4.7419C6.29431 4.62985 6.29652 4.51289 6.27274 4.39986C6.24897 4.28683 6.19983 4.18067 6.12904 4.0894L4.11079 1.49403ZM2.11954 0.574902C2.31641 0.37797 2.55292 0.225173 2.81337 0.126658C3.07382 0.0281428 3.35225 -0.013837 3.63017 0.00350636C3.90809 0.0208497 4.17914 0.0971192 4.42532 0.227251C4.6715 0.357382 4.88718 0.538397 5.05804 0.758277L7.07629 3.35253C7.44642 3.8284 7.57692 4.44828 7.43067 5.03328L6.81529 7.49703C6.78348 7.62464 6.78519 7.7583 6.82028 7.88505C6.85537 8.0118 6.92263 8.12732 7.01554 8.2204L9.77967 10.9845C9.87286 11.0776 9.98857 11.145 10.1155 11.1801C10.2425 11.2152 10.3764 11.2168 10.5042 11.1848L12.9668 10.5694C13.2555 10.4972 13.5568 10.4916 13.848 10.553C14.1392 10.6144 14.4126 10.7412 14.6475 10.9238L17.2418 12.942C18.1744 13.6677 18.2599 15.0458 17.4252 15.8794L16.2619 17.0427C15.4294 17.8752 14.1852 18.2408 13.0253 17.8324C10.0566 16.7879 7.36122 15.0883 5.13904 12.8599C2.91074 10.638 1.21123 7.94304 0.166542 4.97478C-0.240709 3.81603 0.124917 2.57065 0.957417 1.73815L2.12067 0.574902H2.11954Z" fill="white"></path></g><defs><clipPath id="clip0_43_4672"><rect width="18" height="18" fill="white"></rect></clipPath></defs></svg>